<?xml version="1.0" standalone="no"?>
<!DOCTYPE svg PUBLIC "-//W3C//DTD SVG 20010904//EN"
 "http://www.w3.org/TR/2001/REC-SVG-20010904/DTD/svg10.dtd">
<svg version="1.0" xmlns="http://www.w3.org/2000/svg"
 width="128.000000pt" height="128.000000pt" viewBox="0 0 128.000000 128.000000"
 preserveAspectRatio="xMidYMid meet">

<g transform="translate(0.000000,128.000000) scale(0.100000,-0.100000)"
fill="#000000" stroke="none">
<path d="M654 1234 c-8 -53 -3 -59 60 -68 22 -4 79 -26 126 -49 154 -75 279
-227 326 -395 13 -47 21 -61 33 -58 9 3 31 7 49 11 24 5 32 11 28 23 -3 10 -8
31 -12 47 -37 163 -185 354 -342 442 -64 36 -170 76 -229 86 -31 6 -32 6 -39
-39z"/>
<path d="M175 1144 c-46 -23 -135 -114 -156 -159 -24 -52 -24 -103 1 -193 77
-279 347 -581 643 -723 139 -65 243 -84 313 -54 45 18 148 117 169 160 23 50
5 83 -107 193 -86 83 -99 92 -133 92 -32 0 -46 -9 -104 -65 -37 -36 -70 -65
-74 -65 -23 0 -143 85 -209 148 -81 77 -127 135 -168 209 l-23 42 66 71 c96
102 95 114 -25 238 -51 52 -107 101 -125 108 -39 17 -32 17 -68 -2z"/>
<path d="M647 1013 c-3 -4 -7 -26 -8 -47 -4 -38 -3 -39 38 -51 115 -34 211
-130 237 -237 7 -30 19 -33 75 -22 27 6 30 10 25 33 -3 14 -21 58 -40 98 -40
83 -114 158 -197 196 -59 28 -122 43 -130 30z"/>
</g>
</svg>
