<?xml version="1.0" standalone="no"?>
<!DOCTYPE svg PUBLIC "-//W3C//DTD SVG 20010904//EN"
 "http://www.w3.org/TR/2001/REC-SVG-20010904/DTD/svg10.dtd">
<svg version="1.0" xmlns="http://www.w3.org/2000/svg"
 width="300.000000pt" height="300.000000pt" viewBox="0 0 300.000000 300.000000"
 preserveAspectRatio="xMidYMid meet">

<g transform="translate(0.000000,300.000000) scale(0.100000,-0.100000)"
fill="#000000" stroke="none">
<path d="M1340 2814 c-259 -50 -413 -108 -572 -215 -301 -203 -503 -497 -579
-844 -30 -133 -36 -342 -15 -478 20 -124 68 -277 122 -387 36 -75 126 -218
161 -255 10 -11 38 -43 63 -71 146 -165 388 -316 605 -378 215 -62 400 -70
640 -30 148 24 372 121 513 221 144 102 314 291 400 444 251 446 223 1000 -74
1424 -64 93 -201 234 -295 306 -134 102 -322 190 -503 235 -84 21 -130 26
-271 29 -93 2 -181 1 -195 -1z m1324 -853 c47 -92 79 -183 95 -271 16 -86 22
-201 13 -240 -7 -28 -10 -13 -16 80 -11 186 -61 351 -146 486 -46 73 -50 87
-15 54 13 -13 44 -62 69 -109z m-121 37 c75 -114 121 -244 137 -390 11 -96 3
-207 -11 -158 -4 14 -7 63 -8 110 -2 140 -57 308 -147 452 -37 58 -11 45 29
-14z m-893 -15 c102 -28 185 -82 259 -167 83 -96 121 -203 121 -342 0 -157
-55 -281 -171 -388 -65 -61 -157 -109 -239 -127 -78 -17 -232 -6 -302 20 -177
68 -314 239 -336 421 -21 175 30 329 149 449 140 139 327 187 519 134z m870
-118 c55 -114 80 -218 80 -337 0 -55 -4 -97 -9 -94 -4 3 -11 56 -14 118 -7
149 -53 294 -128 400 -11 14 -19 32 -19 40 1 24 50 -46 90 -127z m-74 -43 c53
-111 86 -289 66 -357 -7 -24 -10 -12 -15 65 -9 127 -28 197 -84 309 -58 115
-61 124 -28 86 14 -16 41 -63 61 -103z m-109 36 c66 -105 119 -315 96 -384 -8
-25 -11 -16 -16 56 -9 110 -36 203 -87 296 -43 79 -38 103 7 32z m-43 -77 c35
-64 66 -189 66 -263 0 -87 -16 -70 -22 25 -6 93 -34 184 -78 256 -17 26 -30
52 -30 56 0 17 38 -28 64 -74z m-62 -50 c41 -84 68 -225 49 -258 -8 -15 -10
-9 -11 28 0 68 -35 193 -71 256 -20 35 -27 54 -18 52 8 -3 31 -38 51 -78z
m-78 -13 c43 -74 75 -248 46 -248 -5 0 -10 22 -10 48 0 59 -24 143 -56 200
-14 23 -20 42 -15 42 6 0 21 -19 35 -42z m-56 -55 c19 -42 27 -77 29 -128 l2
-70 -14 79 c-9 44 -27 100 -40 124 -28 51 -29 52 -14 52 5 0 22 -26 37 -57z
m-1814 -466 c24 -91 59 -177 107 -259 47 -81 51 -110 6 -47 -47 66 -103 191
-128 284 -23 86 -38 310 -23 342 5 11 11 -34 14 -117 4 -75 15 -165 24 -203z
m66 218 c0 -53 7 -130 16 -172 14 -69 56 -192 74 -218 20 -29 70 -128 66 -132
-2 -2 -17 15 -34 39 -88 129 -132 271 -139 451 -4 91 -2 127 6 127 7 0 11 -31
11 -95z m98 -167 c18 -73 51 -155 92 -227 21 -36 36 -68 33 -71 -16 -17 -110
165 -138 265 -19 70 -32 255 -19 282 5 12 10 -20 15 -92 3 -60 11 -131 17
-157z m72 159 c0 -116 25 -212 86 -326 50 -94 52 -101 25 -76 -29 26 -97 171
-114 245 -22 90 -26 267 -7 255 6 -3 10 -48 10 -98z m80 6 c0 -100 23 -189 72
-286 42 -80 46 -111 9 -58 -30 42 -67 128 -86 199 -17 67 -21 222 -5 222 6 0
10 -32 10 -77z m81 -73 c7 -51 25 -105 54 -167 24 -51 40 -93 36 -93 -14 0
-73 110 -92 171 -23 73 -36 199 -23 226 6 14 9 9 11 -22 2 -22 8 -74 14 -115z
m69 77 c0 -80 23 -167 61 -234 16 -29 25 -53 20 -53 -16 0 -51 56 -72 117 -24
68 -38 233 -20 233 7 0 11 -23 11 -63z m90 -113 c7 -22 23 -58 37 -82 28 -50
25 -66 -5 -27 -46 58 -83 204 -66 262 6 23 9 16 15 -43 4 -40 12 -89 19 -110z
m62 89 c4 -47 14 -85 32 -121 31 -61 28 -82 -4 -31 -28 46 -50 124 -50 176 0
68 17 50 22 -24z"/>
<path d="M1363 1890 c-103 -34 -196 -115 -247 -217 -37 -73 -49 -134 -44 -228
4 -71 10 -95 41 -157 71 -145 201 -235 354 -245 49 -4 101 -1 134 7 129 30
243 123 302 247 30 64 32 75 32 178 0 103 -2 114 -32 178 -45 96 -125 176
-216 218 -63 29 -84 34 -167 36 -74 2 -109 -1 -157 -17z m171 -351 c31 -15 49
-61 36 -95 -11 -29 -51 -47 -85 -38 -31 8 -43 23 -51 62 -5 25 -1 36 19 56 29
29 44 31 81 15z"/>
</g>
</svg>
