<?xml version="1.0" standalone="no"?>
<!DOCTYPE svg PUBLIC "-//W3C//DTD SVG 20010904//EN"
 "http://www.w3.org/TR/2001/REC-SVG-20010904/DTD/svg10.dtd">
<svg version="1.0" xmlns="http://www.w3.org/2000/svg"
 width="225.000000pt" height="225.000000pt" viewBox="0 0 225.000000 225.000000"
 preserveAspectRatio="xMidYMid meet">

<g transform="translate(0.000000,225.000000) scale(0.100000,-0.100000)"
fill="#000000" stroke="none">
<path d="M1013 1759 c-57 -22 -126 -90 -159 -156 -26 -53 -26 -184 0 -233 34
-64 76 -109 134 -142 50 -29 66 -32 132 -32 134 -1 233 67 280 190 54 144 -10
296 -155 365 -74 35 -153 38 -232 8z"/>
<path d="M255 1511 c-99 -24 -171 -125 -169 -237 2 -125 106 -224 233 -224 73
1 129 27 173 81 84 105 79 230 -12 319 -64 62 -137 82 -225 61z"/>
<path d="M1846 1500 c-60 -24 -99 -60 -127 -118 -18 -36 -21 -56 -17 -114 6
-83 37 -135 108 -183 39 -26 54 -30 115 -30 145 0 238 88 239 225 2 173 -157
283 -318 220z"/>
<path d="M809 1107 c-69 -45 -74 -70 -77 -369 l-3 -268 396 0 396 0 -3 268
c-3 299 -8 324 -77 369 -33 23 -40 23 -316 23 -276 0 -283 0 -316 -23z"/>
<path d="M73 984 c-20 -10 -40 -32 -53 -58 -18 -38 -20 -61 -20 -249 l0 -207
315 0 315 0 0 218 c0 239 -3 251 -66 293 -26 17 -50 19 -244 19 -176 0 -221
-3 -247 -16z"/>
<path d="M1690 987 c-13 -7 -35 -28 -47 -46 -22 -33 -23 -42 -23 -252 l0 -219
315 0 315 0 0 207 c0 186 -2 211 -20 247 -35 72 -51 76 -298 76 -154 0 -224
-4 -242 -13z"/>
</g>
</svg>
